<svg xmlns="http://www.w3.org/2000/svg" width="320" height="220" viewBox="0 0 320 220" role="img" aria-labelledby="title description">
  <title id="title">Neutral workflow illustration</title>
  <desc id="description">Abstract workflow blocks connected in a simple sequence.</desc>
  <rect width="320" height="220" rx="8" fill="#f8fafc"/>
  <path d="M84 110h152" stroke="#94a3b8" stroke-width="6" stroke-linecap="round" stroke-dasharray="2 14"/>
  <rect x="36" y="72" width="78" height="76" rx="8" fill="#ffffff" stroke="#cbd5e1" stroke-width="2"/>
  <rect x="121" y="58" width="78" height="104" rx="8" fill="#ffffff" stroke="#cbd5e1" stroke-width="2"/>
  <rect x="206" y="72" width="78" height="76" rx="8" fill="#ffffff" stroke="#cbd5e1" stroke-width="2"/>
  <path d="M57 98h36M57 116h24M57 132h30" stroke="#475569" stroke-width="7" stroke-linecap="round"/>
  <path d="M144 88h32M144 108h24M144 128h38" stroke="#0f766e" stroke-width="7" stroke-linecap="round"/>
  <path d="M229 98h34M229 116h22M229 132h30" stroke="#2563eb" stroke-width="7" stroke-linecap="round"/>
  <path d="M108 46l8 16 18 3-13 13 3 18-16-9-16 9 3-18-13-13 18-3z" fill="#f59e0b"/>
</svg>
